<svg preserveAspectRatio="none" width="100%" height="100%" overflow="visible" style="display: block;" viewBox="0 0 48 48" fill="none" xmlns="http://www.w3.org/2000/svg">
<g id="surface1">
<path id="Vector" d="M0 14.207C0 6.35938 6.35938 0 14.207 0H33.793C41.6406 0 48 6.35938 48 14.207V33.793C48 41.6406 41.6406 48 33.793 48H14.207C6.35938 48 0 41.6406 0 33.793V14.207Z" fill="var(--fill-0, #E6F0EB)" fill-opacity="0.3"/>
<path id="Vector_2" d="M33.3476 39.3789C33.3476 39.3789 29.2461 37.2187 24.1875 37.2187C19.1289 37.2187 15.0273 39.3789 15.0273 39.3789" stroke="var(--stroke-0, #066938)" stroke-width="1.77602" stroke-linecap="round" stroke-linejoin="round"/>
<path id="Vector_3" d="M29.7891 15.5977C29.9375 16.2148 30.5586 16.5938 31.1758 16.4453C31.7891 16.2969 32.168 15.6758 32.0195 15.0586C31.875 14.4453 31.2539 14.0664 30.6367 14.2148C30.0195 14.3594 29.6406 14.9805 29.7891 15.5977Z" fill="var(--fill-0, #FAC720)" stroke="var(--stroke-0, #0069B4)" stroke-width="0.0710411"/>
<path id="Vector_4" d="M25.1445 12.3867C25.293 13.0039 25.9102 13.3828 26.5273 13.2344C27.1445 13.0859 27.5234 12.4688 27.375 11.8516C27.2266 11.2344 26.6055 10.8555 25.9922 11.0039C25.375 11.1523 24.9961 11.7734 25.1445 12.3867Z" fill="var(--fill-0, #FAC720)" stroke="var(--stroke-0, #0069B4)" stroke-width="0.0710411"/>
<path id="Vector_5" d="M22.0781 19.4219C22.2266 20.0391 22.8477 20.418 23.4609 20.2695C24.0781 20.1211 24.457 19.5 24.3086 18.8867C24.1602 18.2695 23.543 17.8906 22.9258 18.0391C22.3086 18.1875 21.9297 18.8047 22.0781 19.4219Z" fill="var(--fill-0, #FAC720)" stroke="var(--stroke-0, #0069B4)" stroke-width="0.0710411"/>
<path id="Vector_6" d="M14.9609 17.2695C15.1094 17.8867 15.7305 18.2656 16.3437 18.1172C16.9609 17.9688 17.3398 17.3477 17.1914 16.7344C17.043 16.1172 16.4258 15.7383 15.8086 15.8867C15.1914 16.0352 14.8125 16.6523 14.9609 17.2695Z" fill="var(--fill-0, #FAC720)" stroke="var(--stroke-0, #0069B4)" stroke-width="0.0710411"/>
<path id="Vector_7" d="M18.0391 12.8359C18.1875 13.4492 18.8086 13.8281 19.4258 13.6836C20.0391 13.5352 20.418 12.9141 20.2734 12.2969C20.125 11.6836 19.5039 11.3008 18.8867 11.4492C18.2695 11.5977 17.8906 12.2188 18.0391 12.8359Z" fill="var(--fill-0, #FAC720)" stroke="var(--stroke-0, #0069B4)" stroke-width="0.0710411"/>
<path id="Vector_8" d="M27.1602 28.8398C24.418 31.0352 24.9062 34.3359 24.875 36.6797H22.7734C22.7734 35.1445 21.1289 33.0742 20.3086 32.5859C12.4375 36.6719 9.70703 25.7773 9.70703 19.1484C11.1719 21.3398 17.8398 21.6172 20.3086 23.6289C22.2812 25.2383 22.2266 28.6875 21.9531 30.2109C18.9141 27.0703 14.875 27.6953 12.0859 22.7148C12.6328 25.0898 15.0078 26.8281 17.3828 28.1992C19.2852 29.2969 21.7695 31.7656 22.7734 32.8633C22.5 32.4063 25.4258 27.5586 30.543 24.8164C33.0977 23.4453 34.5742 22.0078 35.3594 20.8945C33.1992 23.2305 26.957 25.4453 24.1094 27.6953C26.3945 18.4922 34.3789 20.6094 37.668 15.582C40.957 29.2969 30.8789 31.1875 27.1602 28.8398Z" fill="var(--fill-0, #066938)"/>
</g>
</svg>
